<svg id="Camada_1" data-name="Camada 1" xmlns="http://www.w3.org/2000/svg" xmlns:xlink="http://www.w3.org/1999/xlink" viewBox="0 0 443.52 400.93"><defs><style>.cls-1{fill:#141a2f;}.cls-10,.cls-11,.cls-2,.cls-8,.cls-9{fill:#fff;}.cls-3,.cls-4{fill:#e6204a;}.cls-4{font-size:16px;font-family:MyriadPro-Regular, Myriad Pro;letter-spacing:0.49em;}.cls-5{letter-spacing:0.43em;}.cls-6{letter-spacing:0.5em;}.cls-7{letter-spacing:0.51em;fill:#000;}.cls-8{letter-spacing:0.5em;}.cls-9{letter-spacing:0.45em;}.cls-10{letter-spacing:0.45em;}.cls-11{letter-spacing:0.49em;}.cls-12{font-size:17px;fill:#46ac34;font-family:Consolas;letter-spacing:-0.01em;}.cls-13{fill:url(#Gradiente_sem_nome_12);}</style><linearGradient id="Gradiente_sem_nome_12" x1="217.33" y1="260.5" x2="300.04" y2="260.5" gradientUnits="userSpaceOnUse"><stop offset="0.33" stop-color="#fff"/><stop offset="0.79" stop-color="#e6204a"/></linearGradient></defs><rect class="cls-1" width="443.52" height="400.93"/><path class="cls-2" d="M149.17,341.8V200.6h44.4l27.6,94.27,27-94.27h45V341.8h-27.6V237.19h-2.8l-28.6,100.89h-26l-28.6-100.89h-2.8V341.8Z" transform="translate(-48.24 -69.54)"/><path class="cls-3" d="M393.17,281.2a24.54,24.54,0,0,0-7.5-10.8,45.11,45.11,0,0,0-13.4-7.2,162.57,162.57,0,0,0-20.1-5.6,142.86,142.86,0,0,1-15.7-4.2q-5.7-2-8.1-5.2T326,239q0-8,5.4-11.6t16.8-3.6q5.4,0,13.1.6t15.6,1.3q7.9.7,13.9,1.5l1.2-22q-5.81-1.2-14.1-2.2t-16.8-1.7q-8.51-.7-15.1-.7-14.6,0-25.4,3.8A31.7,31.7,0,0,0,304,217.1q-5.81,8.9-5.8,24.5,0,13.4,4.5,21.4t14.4,12.4q9.9,4.39,25.9,7.4a107.43,107.43,0,0,1,15,3.7q5.4,1.9,7.5,5a14.58,14.58,0,0,1,2.1,8.3q0,9.6-5.2,14.1c-3.23,2.79-8.27,4.27-15.08,4.46v23.43h.48q15,0,25.7-4.3a32.55,32.55,0,0,0,16.4-14q5.7-9.69,5.7-25.7Q395.57,287.79,393.17,281.2Z" transform="translate(-48.24 -69.54)"/><text class="cls-4" transform="translate(92.26 290.19)">M<tspan class="cls-5" x="20.75" y="0">A</tspan><tspan class="cls-6" x="37.36" y="0">THEUS</tspan><tspan class="cls-7" x="122.09" y="0"> </tspan><tspan class="cls-8" x="133.69" y="0">SCHI</tspan><tspan class="cls-9" x="197.31" y="0">A</tspan><tspan class="cls-10" x="214.3" y="0">V</tspan><tspan class="cls-11" x="230.37" y="0">Ã</tspan><tspan class="cls-8" x="247.97" y="0">O</tspan></text><text class="cls-12" transform="translate(162.13 306.79)">front-end dev</text><rect class="cls-13" x="217.33" y="248.75" width="82.71" height="23.51"/></svg>
